<?xml version="1.0" encoding="UTF-8"?>
<svg width="12px" height="24px" viewBox="0 0 12 24" version="1.1" xmlns="http://www.w3.org/2000/svg" xmlns:xlink="http://www.w3.org/1999/xlink">
    <title>fb_icon</title>
    <g id="Page-1" stroke="none" stroke-width="1" fill="none" fill-rule="evenodd">
        <g id="Homepage-01" transform="translate(-1108.000000, -3123.000000)" fill="#93908C">
            <g id="Group-20" transform="translate(0.000000, 3031.000000)">
                <g id="fb_icon" transform="translate(1108.600000, 92.600000)">
                    <path d="M7.19284909,7.46300637 L7.19284909,5.5005121 C7.19284909,5.20590318 7.20659455,4.97770955 7.23452727,4.8165121 C7.26236182,4.65507261 7.32568909,4.49629554 7.42396909,4.33955159 C7.52210182,4.18290446 7.68100909,4.07476178 7.90044545,4.01483312 C8.12017636,3.95480764 8.41216909,3.92489172 8.77671818,3.92489172 L10.7668145,3.92489172 L10.7668145,0 L7.58528182,0 C5.74437273,0 4.42220727,0.430682803 3.61858909,1.29204841 C2.81506909,2.15360764 2.41335818,3.42266242 2.41335818,5.09969682 L2.41335818,7.46295796 L0.0303872727,7.46295796 L0.0303872727,11.3881401 L2.41321091,11.3881401 L2.41321091,22.7763287 L7.1928,22.7763287 L7.1928,11.3881885 L10.3741364,11.3881885 L10.7946491,7.46300637 L7.19284909,7.46300637 Z" id="Path"></path>
                </g>
            </g>
        </g>
    </g>
</svg>