<?xml version="1.0" encoding="UTF-8"?>
<svg width="24px" height="23px" viewBox="0 0 24 23" version="1.1" xmlns="http://www.w3.org/2000/svg" xmlns:xlink="http://www.w3.org/1999/xlink">
    <title>in_icon</title>
    <g id="Page-1" stroke="none" stroke-width="1" fill="none" fill-rule="evenodd">
        <g id="Homepage-01" transform="translate(-1234.000000, -3123.000000)" fill="#93908C" fill-rule="nonzero">
            <g id="Group-20" transform="translate(0.000000, 3031.000000)">
                <g id="in_icon" transform="translate(1234.600000, 92.600000)">
                    <path d="M22.7602547,13.2426865 L22.7602547,21.578117 L17.8800551,21.578117 L17.8800551,13.7970707 C17.8800551,11.8407616 17.1763967,10.5111825 15.4105628,10.5111825 C14.0601269,10.5111825 13.2635073,11.4113555 12.9078939,12.2776664 C12.7798522,12.5896402 12.7409637,13.026545 12.7409637,13.4578376 L12.7409637,21.5771266 L7.86557161,21.5771266 C7.86557161,21.5771266 7.93102046,8.40357904 7.86557161,7.03924192 L12.7419633,7.03924192 L12.7419633,9.09982533 C12.735347,9.11675633 12.7211148,9.13081048 12.7144509,9.14962795 L12.7419633,9.14962795 L12.7419633,9.09982533 C13.393453,8.10947948 14.54759,6.69812227 17.1394121,6.69812227 C20.3562113,6.69812227 22.7602547,8.77568384 22.7602547,13.2426865 Z M2.76060877,0.0296646288 C1.09249603,0.0296646288 0,1.11400349 0,2.544131 C0,3.93572751 1.0602714,5.05671092 2.69801587,5.05671092 L2.72743215,5.05671092 C4.43252944,5.05671092 5.4889929,3.93572751 5.4889929,2.544131 C5.45581628,1.11400349 4.43257704,0.0296646288 2.76060877,0.0296646288 Z M0.291164092,21.5780699 L5.16850772,21.5780699 L5.16850772,7.03834585 L0.291164092,7.03834585 L0.291164092,21.5780699 Z" id="LinkedIn_3_"></path>
                </g>
            </g>
        </g>
    </g>
</svg>