<?xml version="1.0" encoding="UTF-8"?>
<svg width="16px" height="13px" viewBox="0 0 16 13" version="1.1" xmlns="http://www.w3.org/2000/svg" xmlns:xlink="http://www.w3.org/1999/xlink">
    <title>mail-inbox-app</title>
    <g id="Page-1" stroke="none" stroke-width="1" fill="none" fill-rule="evenodd">
        <g id="Homepage-01" transform="translate(-1097.000000, -3340.000000)" fill="#EFA649" fill-rule="nonzero">
            <g id="Group-20" transform="translate(0.000000, 3031.000000)">
                <g id="Group-21" transform="translate(1097.000000, 303.000000)">
                    <g id="mail-inbox-app" transform="translate(0.000000, 6.000000)">
                        <path d="M11.76,12.12 L3.6,12.12 C1.61496,12.12 0,10.50504 0,8.52 L0,3.6 C0,1.61496 1.61496,0 3.6,0 L11.76,0 C13.74504,0 15.36,1.61496 15.36,3.6 L15.36,8.52 C15.36,10.50504 13.74504,12.12 11.76,12.12 Z M3.6,1.2 C2.27664,1.2 1.2,2.27664 1.2,3.6 L1.2,8.52 C1.2,9.84336 2.27664,10.92 3.6,10.92 L11.76,10.92 C13.08336,10.92 14.16,9.84336 14.16,8.52 L14.16,3.6 C14.16,2.27664 13.08336,1.2 11.76,1.2 L3.6,1.2 Z M9.87858,7.12218 L12.84423,4.85682 C13.10757,4.65567 13.15797,4.27914 12.95682,4.0158 C12.75564,3.75246 12.37914,3.70206 12.1158,3.90321 L9.15051,6.1683 C8.29428,6.82137 7.09851,6.82185 6.24171,6.16995 L3.36828,3.9363 C3.10665,3.7329 2.72967,3.78015 2.52633,4.04178 C2.32296,4.30341 2.37018,4.68036 2.63181,4.88373 L5.50746,7.11909 C5.5089,7.12023 5.51037,7.12134 5.51184,7.12245 C6.15456,7.61265 6.92466,7.85772 7.69494,7.85772 C8.46522,7.85772 9.23565,7.6125 9.87858,7.12218 L9.87858,7.12218 Z" id="Shape"></path>
                    </g>
                </g>
            </g>
        </g>
    </g>
</svg>