<?xml version="1.0" encoding="UTF-8"?>
<svg width="13px" height="16px" viewBox="0 0 13 16" version="1.1" xmlns="http://www.w3.org/2000/svg" xmlns:xlink="http://www.w3.org/1999/xlink">
    <title>place(4)</title>
    <g id="Page-1" stroke="none" stroke-width="1" fill="none" fill-rule="evenodd">
        <g id="Homepage-01" transform="translate(-391.000000, -3338.000000)" fill="#F0A74A" fill-rule="nonzero">
            <g id="Group-20" transform="translate(0.000000, 3031.000000)">
                <g id="Group-21" transform="translate(391.000000, 303.000000)">
                    <g id="place(4)" transform="translate(0.000000, 4.000000)">
                        <path d="M6.24018,0 C8.30751,0 10.16592,0.97353 11.33853,2.67063 C12.50538,4.35915 12.77481,6.49686 12.05925,8.38893 C11.86983,8.90055 11.56659,9.4011 11.15913,9.87336 L11.15913,9.87336 L6.64905,15.17094 C6.54702,15.29091 6.39753,15.36 6.24018,15.36 C6.08283,15.36 5.93334,15.29088 5.83131,15.17094 L5.83131,15.17094 L1.31997,9.87192 C0.91431,9.40236 0.61068,8.90127 0.41967,8.38551 C-0.29445,6.49686 -0.02502,4.35915 1.14183,2.67063 C2.31444,0.97353 4.17285,0 6.24018,0 Z M6.24018,1.07412 C4.53087,1.07412 2.99451,1.87866 2.0253,3.28146 C1.05912,4.67979 0.83499,6.44727 1.42557,8.00922 C1.57308,8.40774 1.81155,8.79798 2.13522,9.17304 L2.13522,9.17304 L6.24018,13.99461 L10.34262,9.17607 C10.34334,9.17499 10.34424,9.17409 10.34514,9.17319 C10.66899,8.7978 10.90746,8.40753 11.05353,8.01279 C11.64555,6.44727 11.42124,4.67979 10.45488,3.28146 C9.48564,1.87863 7.94946,1.07412 6.24018,1.07412 Z M6.24018,3.18657 C7.89846,3.18657 9.24774,4.53585 9.24774,6.19413 C9.24774,7.85259 7.89864,9.20169 6.24018,9.20169 C4.58172,9.20169 3.23262,7.85259 3.23262,6.19413 C3.23262,4.53567 4.5819,3.18657 6.24018,3.18657 Z M6.24018,4.26066 C5.1741,4.26066 4.30674,5.12802 4.30674,6.1941 C4.30674,7.26018 5.1741,8.12754 6.24018,8.12754 C7.30626,8.12754 8.17362,7.26018 8.17362,6.1941 C8.17362,5.12802 7.30626,4.26066 6.24018,4.26066 Z" id="Combined-Shape"></path>
                    </g>
                </g>
            </g>
        </g>
    </g>
</svg>