<?xml version="1.0" encoding="UTF-8"?>
<svg width="25px" height="22px" viewBox="0 0 25 22" version="1.1" xmlns="http://www.w3.org/2000/svg" xmlns:xlink="http://www.w3.org/1999/xlink">
    <title>tw_icon</title>
    <g id="Page-1" stroke="none" stroke-width="1" fill="none" fill-rule="evenodd">
        <g id="Homepage-01" transform="translate(-1299.000000, -3124.000000)" fill="#93908C">
            <g id="Group-20" transform="translate(0.000000, 3031.000000)">
                <g id="tw_icon" transform="translate(1299.400000, 93.800000)">
                    <path d="M24,2.41504615 C23.1075,2.82461538 22.1565,3.09609231 21.165,3.22790769 C22.185,2.5908 22.9635,1.58963077 23.3295,0.382892308 C22.3785,0.976061538 21.3285,1.39504615 20.2095,1.62886154 C19.3065,0.622984615 18.0195,0 16.6155,0 C13.8915,0 11.6985,2.31304615 11.6985,5.14864615 C11.6985,5.55664615 11.7315,5.94895385 11.8125,6.32243077 C7.722,6.11372308 4.1025,4.06273846 1.671,0.9384 C1.2465,1.70889231 0.9975,2.5908 0.9975,3.54018462 C0.9975,5.32283077 1.875,6.90304615 3.183,7.81790769 C2.3925,7.80221538 1.617,7.56212308 0.96,7.18393846 C0.96,7.19963077 0.96,7.22003077 0.96,7.24043077 C0.96,9.74178462 2.6655,11.8194462 4.902,12.2980615 C4.5015,12.4126154 4.065,12.4675385 3.612,12.4675385 C3.297,12.4675385 2.979,12.4487077 2.6805,12.3796615 C3.318,14.4180923 5.127,15.9167077 7.278,15.9653538 C5.604,17.3352923 3.4785,18.1607077 1.1775,18.1607077 C0.774,18.1607077 0.387,18.1418769 -6.82121026e-14,18.0900923 C2.1795,19.5604615 4.7625,20.4 7.548,20.4 C16.602,20.4 21.552,12.5538462 21.552,5.7528 C21.552,5.52526154 21.5445,5.30556923 21.534,5.08744615 C22.5105,4.36246154 23.331,3.45701538 24,2.41504615 Z" id="Path"></path>
                </g>
            </g>
        </g>
    </g>
</svg>